<?xml version="1.0" standalone="no"?>
<!DOCTYPE svg PUBLIC "-//W3C//DTD SVG 20010904//EN"
 "http://www.w3.org/TR/2001/REC-SVG-20010904/DTD/svg10.dtd">
<svg version="1.0" xmlns="http://www.w3.org/2000/svg"
 width="1563.000000pt" height="1563.000000pt" viewBox="0 0 1563.000000 1563.000000"
 preserveAspectRatio="xMidYMid meet">
<metadata>
Created by potrace 1.14, written by Peter Selinger 2001-2017
</metadata>
<g transform="translate(0.000000,1563.000000) scale(0.100000,-0.100000)"
fill="#000000" stroke="none">
<path d="M12179 13483 c-6 -15 -15 -50 -21 -78 -14 -61 -17 -65 -59 -71 -83
-11 -100 -16 -128 -40 -32 -27 -54 -79 -56 -134 -1 -19 -9 -46 -18 -60 -13
-20 -14 -33 -6 -65 30 -116 34 -149 19 -140 -6 3 -15 -6 -21 -22 -6 -15 -17
-36 -26 -45 -8 -9 -15 -33 -15 -52 0 -43 76 -204 100 -213 14 -6 129 -70 140
-79 2 -1 -3 -24 -11 -51 -22 -75 -21 -147 3 -219 l22 -64 -23 -72 c-29 -91
-85 -202 -174 -344 l-69 -111 -56 26 c-50 23 -66 26 -190 26 -81 0 -152 -5
-177 -13 -43 -13 -133 -70 -192 -120 -39 -35 -106 -72 -139 -78 -36 -7 -48
-24 -44 -61 5 -40 -5 -83 -18 -83 -10 0 -31 -15 -89 -67 -20 -18 -37 -28 -39
-23 -5 14 -29 12 -36 -2 -3 -9 -8 -8 -16 5 -13 21 -30 22 -30 2 0 -22 -11 -19
-53 16 -21 17 -41 29 -44 25 -8 -8 -43 33 -43 51 0 7 7 13 15 13 17 0 20 26 5
35 -6 4 -17 2 -25 -5 -9 -8 -15 -8 -20 0 -12 20 -24 0 -15 -25 8 -22 7 -25
-13 -26 -123 -4 -201 -18 -249 -47 -43 -25 -33 -33 14 -10 31 15 67 21 155 24
148 5 149 -9 3 -46 -79 -20 -326 -153 -338 -182 -6 -14 -20 -9 -84 30 -81 49
-231 121 -331 158 -68 25 -77 32 -72 49 4 11 9 43 12 71 4 43 10 54 30 63 35
16 231 13 317 -5 38 -8 71 -12 74 -9 3 3 3 5 -1 5 -3 0 -32 7 -64 15 -114 28
-283 37 -334 17 -34 -14 -41 -6 -33 36 5 27 4 34 -7 30 -11 -4 -14 -27 -14
-94 0 -92 -15 -140 -40 -130 -7 2 -77 21 -156 41 -157 39 -179 52 -211 123
-22 49 -35 53 -44 15 -19 -87 -10 -83 -144 -65 -47 6 -110 14 -140 16 -30 3
-84 8 -120 12 -67 7 -3132 13 -3161 6 -12 -3 -15 -14 -14 -45 2 -23 3 -44 4
-47 0 -3 74 -6 164 -6 260 -3 410 -39 545 -134 74 -52 129 -118 162 -194 25
-59 25 -59 0 -51 -12 4 -45 -1 -75 -11 -43 -13 -70 -15 -127 -9 -40 5 -111 8
-158 9 -75 1 -90 -2 -120 -24 -39 -27 -54 -43 -75 -82 -18 -32 -26 -107 -14
-130 22 -43 -63 -39 -169 7 -153 67 -241 57 -286 -34 -13 -25 -28 -62 -35 -81
-6 -19 -36 -69 -68 -109 -46 -61 -57 -84 -61 -123 -4 -40 -2 -48 12 -48 10 0
14 -4 11 -10 -6 -10 69 -89 110 -116 34 -22 55 -75 55 -138 0 -31 -3 -56 -6
-56 -3 0 -18 8 -32 19 -65 45 -106 48 -272 17 -47 -9 -86 -16 -88 -16 -1 0
-24 -21 -50 -47 -27 -27 -69 -60 -95 -75 -59 -34 -66 -59 -39 -149 21 -70 21
-70 2 -132 -11 -34 -20 -73 -20 -87 1 -42 43 -81 52 -47 2 11 33 6 138 -19
248 -61 323 -90 479 -184 46 -27 92 -52 102 -55 24 -8 23 -14 -2 -44 -20 -24
-20 -24 -56 -7 -20 9 -68 43 -107 75 -103 85 -116 90 -223 86 -51 -2 -95 -5
-100 -8 -54 -33 -122 -64 -127 -59 -4 3 -14 7 -24 8 -63 9 -83 17 -94 37 -16
28 -16 34 -5 77 11 41 21 50 61 50 36 0 31 7 -9 14 -38 7 -47 0 -63 -45 -15
-43 -16 -84 -2 -109 12 -23 79 -48 147 -54 74 -8 138 -36 238 -106 170 -119
273 -160 411 -164 125 -3 227 22 366 92 48 24 92 41 98 37 13 -8 103 -9 128
-1 15 5 22 -1 33 -26 20 -50 72 -126 94 -138 11 -6 33 -41 50 -78 16 -36 39
-81 51 -98 l22 -32 0 -1676 0 -1676 -51 76 c-136 202 -262 243 -497 164 -192
-66 -367 -170 -510 -306 l-88 -85 -53 56 c-103 109 -245 198 -434 273 -99 39
-277 98 -325 107 -14 3 -40 8 -58 11 -18 4 -32 9 -30 13 2 3 15 29 29 56 36
68 56 136 68 226 13 93 22 119 65 178 18 25 43 78 54 116 26 86 60 139 152
235 70 74 84 108 38 95 -13 -4 -69 -29 -124 -55 -79 -38 -112 -61 -148 -101
-53 -58 -62 -88 -13 -42 39 37 153 111 142 92 -5 -8 -38 -52 -75 -99 -326
-419 -499 -703 -695 -1140 -26 -58 -52 -109 -57 -115 -7 -7 -9 -7 -6 0 3 6 9
32 13 60 7 54 38 181 57 230 33 88 108 253 159 352 62 117 64 123 50 123 -16
0 -153 -249 -204 -372 -9 -21 -18 -38 -20 -38 -6 0 20 86 38 127 8 18 10 35 5
38 -25 15 -139 -339 -140 -435 -1 -34 -2 -33 -31 30 -17 36 -72 160 -121 275
-49 116 -99 225 -110 243 -26 43 -52 57 -72 37 -19 -19 -26 -19 -26 2 0 26
-76 176 -100 198 -22 20 -22 20 -41 -4 -12 -14 -19 -18 -19 -9 0 18 -106 181
-150 231 -38 43 -61 57 -145 85 -107 36 -263 119 -305 163 -44 45 -78 48 -65
6 14 -45 34 -168 40 -244 13 -178 30 -241 84 -306 30 -36 41 -60 46 -95 11
-86 25 -120 73 -174 26 -29 55 -70 64 -90 11 -23 36 -49 70 -72 29 -19 65 -44
80 -56 17 -13 29 -17 33 -10 12 19 -25 61 -91 102 -50 32 -64 45 -64 65 0 15
-18 43 -49 76 -56 61 -69 82 -77 133 -3 20 -11 49 -16 63 -6 14 -12 31 -14 36
-1 6 -15 39 -32 75 -32 70 -48 134 -57 220 -7 72 -15 130 -21 155 -3 11 42
-71 99 -182 58 -111 114 -215 126 -231 11 -17 21 -33 21 -37 0 -14 147 -236
225 -341 90 -119 207 -242 271 -285 21 -15 80 -52 131 -83 118 -73 222 -181
247 -258 6 -20 42 -24 48 -7 2 7 19 -8 38 -32 43 -56 130 -141 197 -191 31
-23 64 -61 81 -92 17 -28 37 -58 46 -65 20 -17 21 -31 1 -31 -22 0 -149 -65
-226 -116 -291 -193 -491 -606 -354 -734 31 -29 31 -25 1 39 -43 94 -18 196
85 350 125 188 301 330 504 409 l50 19 30 -29 c17 -16 49 -43 72 -59 24 -17
43 -31 43 -32 0 -1 -21 -3 -48 -5 -26 -1 -61 -7 -78 -13 -17 -5 -40 -11 -50
-13 -33 -7 -77 -26 -72 -32 3 -3 41 2 84 11 44 8 107 17 141 19 62 3 79 -2
238 -74 11 -5 34 -13 50 -18 25 -9 13 -11 -65 -12 -52 -1 -104 -3 -115 -4 -87
-12 -124 -18 -180 -31 -57 -13 -65 -16 -60 -25 3 -4 22 -4 42 1 145 34 442 31
623 -6 8 -2 21 -4 28 -4 7 -1 10 -6 7 -11 -4 -6 -10 -8 -15 -5 -13 8 -208 7
-290 -1 -72 -6 -219 -29 -295 -44 -82 -17 -275 -80 -275 -90 0 -6 10 -6 25 0
28 11 179 51 210 56 11 2 34 6 50 9 92 18 144 25 208 31 117 9 196 10 191 2
-3 -5 -15 -8 -27 -8 -13 0 -48 -7 -79 -15 -31 -8 -67 -16 -80 -19 -48 -8 -318
-101 -448 -153 -138 -55 -289 -131 -370 -186 -57 -38 -54 -36 -47 -43 3 -3 39
14 79 39 226 139 544 264 793 312 235 44 402 65 392 48 -4 -6 -67 -30 -139
-53 -318 -99 -467 -157 -532 -205 -40 -30 -4 -27 61 5 104 49 150 66 347 125
101 30 192 57 202 61 16 5 -15 -16 -182 -123 -10 -7 -40 -24 -66 -38 -47 -25
-68 -45 -48 -45 15 0 134 61 218 112 34 21 66 38 70 38 4 0 25 14 47 31 35 26
40 28 44 13 2 -11 -8 -26 -25 -38 -75 -55 -249 -257 -310 -359 -27 -46 -36
-53 -80 -65 -27 -6 -71 -15 -99 -18 -27 -4 -53 -8 -57 -10 -9 -6 -204 -18
-283 -18 -72 1 -158 8 -209 19 -42 9 -165 68 -205 99 -19 14 -37 23 -40 20 -9
-9 87 -91 129 -110 19 -10 49 -28 66 -40 45 -35 169 -89 249 -109 128 -33 379
-17 432 26 8 7 10 0 7 -28 -23 -187 13 -328 104 -417 38 -36 62 -41 62 -12 0
8 -18 40 -39 72 -55 83 -79 161 -79 258 0 189 111 412 307 618 l83 88 29 -36
c27 -34 29 -41 25 -108 -3 -39 -8 -84 -11 -99 -10 -48 -54 -158 -101 -251 -55
-109 -53 -136 4 -40 98 168 147 303 151 417 1 16 3 16 31 2 16 -8 36 -15 45
-15 11 0 15 -6 11 -17 -3 -10 -10 -37 -16 -61 -6 -24 -29 -80 -50 -125 -36
-75 -110 -326 -110 -372 0 -30 18 -5 25 35 15 85 70 252 116 349 l50 106 -6
-65 c-3 -36 -18 -132 -32 -215 -55 -322 -62 -386 -59 -530 2 -95 9 -162 21
-207 22 -85 36 -89 18 -5 -16 77 -22 245 -11 335 13 109 16 130 57 337 16 83
32 175 36 205 4 30 8 56 10 58 1 2 6 -28 10 -65 4 -37 9 -77 11 -88 2 -11 7
-33 9 -50 3 -16 14 -75 25 -130 10 -55 22 -116 25 -135 3 -19 10 -39 16 -45
12 -12 12 -8 -16 180 -10 67 -13 88 -21 140 -3 28 -8 59 -10 70 -2 11 -7 45
-10 75 -6 56 -8 71 -20 150 l-6 44 31 -24 c39 -31 124 -207 147 -306 21 -91
20 -193 -2 -293 -5 -23 -4 -32 3 -28 6 4 14 24 18 44 5 21 10 45 12 53 2 8 5
53 5 100 0 99 -25 205 -73 302 -51 104 -51 105 -23 104 18 -1 41 -24 87 -81
68 -86 252 -272 303 -307 29 -20 31 -25 27 -62 -19 -148 -85 -336 -161 -456
-32 -50 -118 -168 -132 -180 -3 -3 -34 -41 -69 -85 -34 -44 -70 -84 -78 -89
-27 -15 -107 -10 -143 9 -98 50 -410 306 -410 337 0 4 -7 8 -15 8 -43 0 137
-197 285 -311 115 -89 147 -106 203 -112 37 -4 58 0 97 20 28 14 55 34 61 45
9 18 39 56 164 210 69 86 170 294 196 404 17 77 19 89 22 148 1 31 5 56 9 56
4 0 23 -9 42 -20 92 -51 254 -79 444 -74 154 3 291 28 412 76 60 23 204 114
234 147 29 32 7 25 -67 -24 -118 -76 -285 -135 -430 -152 -82 -9 -275 -10
-358 -1 -188 21 -341 120 -536 344 -10 12 -43 49 -73 84 -66 75 -68 80 -38 80
13 0 55 -25 98 -60 107 -85 333 -217 469 -275 84 -35 200 -60 215 -45 7 7 3
10 -14 11 -75 2 -143 24 -260 83 -95 48 -253 144 -258 157 -2 5 -8 9 -13 9 -5
0 -40 24 -77 52 -86 67 -108 88 -96 88 6 0 25 14 43 32 19 18 35 28 39 22 9
-13 114 -91 182 -136 94 -61 307 -164 318 -153 7 7 11 4 -103 64 -108 57 -291
177 -340 223 -16 15 -33 28 -37 28 -5 0 -8 5 -8 10 0 6 6 10 14 10 7 0 25 9
40 21 l26 20 42 -34 c24 -19 63 -47 88 -63 25 -16 71 -48 103 -72 32 -24 61
-41 65 -37 8 8 -14 27 -138 115 -107 76 -142 110 -132 126 5 8 24 3 62 -15
144 -69 258 -119 405 -178 180 -73 518 -193 540 -193 31 0 13 16 -37 34 -215
75 -935 380 -963 407 -6 7 -6 12 1 17 12 7 30 69 25 86 -3 14 98 -2 205 -32
183 -53 343 -126 527 -240 87 -53 129 -64 72 -17 -90 73 -347 206 -510 265
-68 24 -226 67 -268 73 -26 3 -46 20 -47 39 0 8 357 2 396 -6 12 -2 45 -7 75
-11 30 -4 62 -11 72 -16 9 -5 17 -8 17 -5 0 2 28 -6 62 -20 68 -26 78 -28 78
-15 0 5 -35 23 -77 39 -148 56 -258 72 -525 75 l-114 2 -1 51 -1 50 92 18 c66
12 149 17 288 18 l195 1 64 -34 c76 -40 226 -184 346 -334 44 -55 99 -120 122
-145 148 -159 197 -264 166 -354 -16 -45 -1 -58 16 -13 26 68 10 171 -36 232
-8 11 -65 88 -126 170 -92 122 -179 234 -209 265 -3 3 -31 33 -63 66 l-58 61
113 -3 c62 -2 147 -6 188 -8 l75 -6 76 -77 c41 -43 112 -124 158 -180 93 -117
177 -205 236 -249 47 -35 137 -79 180 -88 17 -4 41 -9 55 -11 30 -6 147 -7
175 -2 11 3 41 8 67 11 26 4 50 11 53 17 8 12 -9 11 -76 -1 -76 -15 -198 -14
-250 1 -115 34 -221 113 -333 250 -81 100 -177 225 -190 248 -13 25 75 -67
129 -134 76 -94 144 -163 197 -196 61 -40 83 -33 26 8 -72 53 -93 75 -193 208
-62 83 -118 143 -170 183 l-30 23 45 -22 c57 -28 105 -64 211 -161 46 -42 105
-93 132 -113 94 -72 253 -145 345 -159 56 -8 47 10 -11 20 -48 9 -45 8 -72 18
-135 50 -243 122 -370 249 -44 44 -102 97 -129 119 -44 35 -46 38 -20 33 16
-4 45 -8 64 -11 19 -2 41 -6 47 -9 7 -2 57 -7 110 -10 109 -7 128 -12 263 -63
175 -66 295 -154 348 -253 37 -69 39 -120 8 -173 -30 -51 -21 -68 17 -30 79
79 15 253 -133 361 -69 51 -158 96 -250 127 -78 26 -77 27 25 42 32 4 167 31
245 49 33 7 138 38 192 55 48 17 89 20 287 20 l231 1 0 52 0 52 -188 1 c-279
1 -354 13 -501 85 -146 72 -224 171 -274 347 -21 76 -22 84 -25 1132 l-3 1056
348 1 c304 1 499 7 623 18 135 12 187 18 275 31 510 75 896 228 1247 496 85
65 240 214 304 293 229 283 401 714 439 1105 11 111 15 134 22 141 5 4 36 17
71 29 53 19 61 25 50 36 -11 12 -22 11 -65 -6 -30 -11 -55 -16 -58 -10 -6 10
-4 120 2 120 2 0 24 -21 48 -47 25 -27 45 -43 45 -37 0 6 -22 33 -49 61 l-48
49 -6 112 c-3 62 -2 112 1 113 4 0 25 2 48 5 37 5 45 2 80 -31 62 -59 146
-109 215 -130 35 -10 80 -28 99 -38 122 -68 152 -78 250 -79 67 -1 99 5 215
43 50 16 102 30 118 31 15 1 27 5 27 9 0 9 -90 34 -112 31 -22 -2 -167 40
-242 71 -52 22 -56 25 -32 29 14 3 52 4 84 3 53 -1 63 -5 115 -48 50 -41 77
-56 77 -43 0 2 -17 15 -37 29 -21 14 -72 58 -113 98 -41 40 -111 101 -155 136
-44 35 -86 68 -93 74 -35 29 -176 89 -245 104 -86 19 -167 15 -252 -11 -71
-21 -97 -10 -113 50 -19 73 -19 73 41 68 28 -2 79 1 112 8 33 6 71 13 85 16
14 2 31 7 38 9 7 3 34 -16 60 -41 77 -75 245 -142 402 -161 117 -14 285 -6
375 17 22 6 58 13 80 16 22 3 41 7 43 8 4 5 -53 75 -61 76 -5 0 4 -15 19 -32
l27 -33 -24 -3 c-13 -2 -53 -10 -88 -18 l-64 -16 -31 36 c-17 20 -47 48 -66
62 l-35 26 30 -5 c17 -3 81 -21 143 -40 63 -19 110 -31 105 -27 -10 10 -211
76 -271 89 -62 13 -61 18 5 27 88 12 116 12 141 3 36 -14 26 -4 -35 33 -191
117 -322 148 -463 107 -25 -7 -47 -13 -50 -14 -3 -1 -49 -16 -103 -33 -53 -18
-106 -32 -116 -32 -11 0 -21 -4 -23 -10 -1 -5 -20 -12 -42 -16 -21 -3 -48 -8
-60 -10 -48 -11 -201 -15 -187 -6 8 6 39 10 70 10 71 0 123 18 258 89 196 102
259 155 313 259 14 27 33 61 43 76 21 33 14 52 -17 43 -11 -3 -28 -8 -36 -10
-8 -2 -37 -11 -65 -19 -64 -20 -62 -21 -58 12 7 44 -13 80 -64 111 -62 39 -76
29 -19 -15 53 -40 67 -81 41 -122 -18 -27 -64 -71 -76 -72 -4 0 -17 27 -29 60
-30 80 -44 68 -17 -15 l21 -64 -62 -61 c-34 -33 -66 -60 -72 -60 -5 0 -14 19
-20 43 -20 78 -43 140 -62 174 -27 45 -33 42 -10 -4 11 -21 25 -63 32 -93 7
-30 16 -70 21 -87 9 -39 6 -40 -46 -37 -22 1 -76 3 -120 4 -102 3 -121 11
-133 52 -12 39 -26 179 -23 227 2 21 -1 31 -8 27 -6 -4 -9 -44 -8 -106 2 -55
2 -100 1 -100 -1 0 -14 21 -29 48 -15 26 -43 70 -61 99 l-34 52 25 37 c14 20
25 43 25 50 0 8 14 43 31 79 28 60 30 72 24 128 -15 134 10 263 56 287 23 13
23 13 5 -39 -10 -27 -14 -69 -11 -128 5 -137 20 -151 20 -20 1 84 5 122 18
151 9 22 19 37 22 34 3 -2 7 -56 10 -119 5 -110 7 -129 20 -222 8 -57 32 -157
44 -187 12 -32 13 -16 1 35 -21 94 -30 173 -35 325 l-4 125 22 -40 c12 -22 40
-94 63 -160 23 -66 55 -157 70 -202 16 -45 32 -83 35 -83 10 0 -7 76 -35 165
-14 43 -24 80 -23 82 2 1 18 -12 37 -30 49 -45 203 -155 234 -167 14 -5 54
-12 88 -15 66 -7 64 -8 178 58 41 23 125 42 175 39 77 -4 123 -17 151 -42 18
-15 56 -33 85 -40 103 -25 150 -77 144 -157 -1 -17 -26 -77 -54 -133 -32 -61
-53 -117 -54 -139 -2 -44 50 -140 90 -167 28 -18 90 -21 166 -8 42 7 41 11 22
-53 -8 -30 3 -63 21 -63 8 0 14 10 14 25 0 14 9 44 19 66 26 52 45 173 39 244
l-5 56 29 -45 c15 -25 28 -50 28 -55 0 -6 5 -13 10 -16 17 -10 -20 75 -63 145
-50 82 -82 125 -126 172 -19 21 -32 40 -29 43 12 13 150 -116 218 -204 3 -4
24 -21 47 -39 51 -40 203 -121 184 -98 -7 9 -17 16 -22 16 -5 0 -43 23 -85 52
-49 33 -100 80 -143 132 -78 93 -136 148 -181 171 -100 52 77 0 213 -62 107
-49 157 -66 157 -54 0 5 -12 11 -27 14 -16 3 -63 26 -106 51 -43 25 -99 53
-123 62 l-45 17 73 19 c117 30 145 27 249 -27 51 -25 122 -56 158 -67 124 -38
181 -79 181 -129 0 -36 18 -47 29 -17 9 23 9 23 16 -5 12 -44 -44 -146 -74
-135 -6 2 -2 22 10 47 10 24 17 46 14 49 -10 10 -46 -45 -61 -95 -8 -29 -18
-53 -20 -53 -7 0 -116 60 -132 73 -7 5 -15 7 -19 3 -8 -7 -13 -3 67 -57 l65
-43 -35 -11 c-53 -15 -63 -24 -49 -41 7 -9 9 -31 6 -57 -6 -47 -20 -59 -101
-94 l-51 -21 -11 36 c-20 63 -47 118 -51 104 -3 -7 0 -25 6 -40 6 -15 15 -47
20 -71 l9 -43 -73 -34 c-99 -46 -105 -45 -106 14 -1 26 0 56 1 67 1 14 -2 17
-9 10 -6 -6 -12 -37 -14 -70 -4 -65 -14 -71 -64 -39 -51 33 -60 0 -11 -41 28
-24 39 -27 89 -23 45 3 82 17 180 67 190 97 235 137 227 206 -2 23 1 28 22 32
33 5 67 28 74 51 4 10 22 26 41 35 19 9 42 29 52 44 27 40 55 68 85 84 24 13
47 39 116 133 33 45 28 83 -24 182 -26 49 -47 100 -46 114 0 15 14 55 31 90
32 66 36 80 23 80 -4 0 -23 -29 -42 -64 -34 -63 -35 -64 -85 -72 l-50 -8 45
-5 c38 -5 45 -9 42 -26 -15 -92 -56 -150 -145 -203 l-56 -34 -59 21 c-32 12
-66 21 -76 21 -10 0 -55 17 -100 38 -44 21 -92 43 -106 49 l-25 12 30 2 c17 1
77 2 135 3 118 3 207 13 215 27 4 5 -8 6 -27 2 -31 -6 -64 -7 -227 -4 -88 1
-74 8 30 14 99 6 150 24 175 61 20 32 10 49 -11 19 -22 -31 -74 -45 -178 -47
-81 -2 -102 -7 -172 -38 -123 -54 -139 -59 -186 -60 -78 -1 -81 0 -69 21 5 11
10 29 10 40 0 15 6 21 23 21 13 0 26 3 30 6 14 14 145 55 192 60 71 7 71 17 0
12 -33 -3 -100 -17 -149 -33 -63 -20 -93 -25 -104 -18 -29 18 -23 30 15 36 22
4 93 39 158 78 184 109 223 123 316 105 25 -5 30 -4 18 3 -26 16 -120 22 -159
10 -53 -16 -95 -36 -210 -100 -58 -32 -126 -64 -153 -71 -36 -9 -46 -16 -42
-29 5 -14 -5 -18 -54 -23 -84 -10 -84 -22 0 -18 65 3 99 -6 99 -28 0 -3 -63
-6 -141 -5 -77 1 -142 -2 -144 -5 -2 -4 1 -7 8 -8 14 -1 247 -11 262 -12 5 0
2 -7 -6 -15 -29 -29 -217 -18 -293 16 -14 7 -26 15 -26 19 0 18 161 68 240 74
30 3 150 117 197 188 18 26 48 91 68 145 61 166 65 175 120 281 58 111 57 123
-4 34 -56 -83 -93 -161 -141 -297 -41 -117 -64 -158 -124 -222 -28 -31 -60
-48 -39 -20 15 18 52 130 68 206 21 100 6 299 -25 349 -9 14 -10 12 -5 -10 41
-196 24 -337 -67 -545 -38 -88 -42 -93 -72 -94 -86 -2 -211 -33 -240 -59 -8
-8 -63 6 -79 20 -4 4 8 19 27 34 20 15 47 47 62 72 23 39 27 58 30 149 2 62 0
106 -6 110 -12 7 -12 9 -15 -80 -2 -75 -12 -145 -21 -145 -10 0 -70 33 -112
62 -24 17 -46 28 -49 25 -8 -8 110 -97 130 -97 23 0 22 -11 -4 -39 -27 -29
-138 -101 -155 -101 -7 0 -69 25 -137 55 -68 30 -130 55 -138 54 -8 0 37 -26
100 -58 109 -55 113 -58 82 -64 -17 -4 -51 -20 -74 -35 -67 -47 -114 -54 -193
-33 -49 13 -83 45 -122 114 -53 93 -107 120 -64 32 12 -25 22 -48 22 -51 0 -6
-77 46 -106 72 -24 23 -88 114 -82 119 2 2 30 -9 62 -26 33 -16 61 -27 64 -25
6 6 -36 41 -94 79 -29 19 -56 47 -65 67 -32 67 -31 74 1 99 l31 22 67 -63 c65
-61 128 -106 225 -162 74 -43 55 -22 -33 37 -91 61 -230 182 -230 200 0 7 9
18 20 25 16 10 31 7 94 -17 102 -41 263 -84 353 -95 33 -4 41 -3 28 3 -12 5
-37 11 -56 14 -32 4 -63 12 -179 48 -19 6 -71 25 -115 42 -73 28 -77 32 -50
37 50 9 719 6 740 -4 11 -5 17 -6 13 -1 -4 4 -33 14 -65 21 -44 11 -136 13
-391 11 l-332 -2 0 30 c0 28 2 30 43 32 24 1 89 20 144 42 55 23 125 46 154
53 30 6 58 15 63 19 21 19 -97 -6 -209 -42 -141 -47 -205 -59 -205 -38 0 9 12
15 31 16 32 2 89 34 199 112 97 67 155 85 287 84 148 0 194 -14 258 -77 98
-98 99 -92 -12 -94 -53 -1 -100 -5 -104 -9 -5 -5 21 -7 57 -7 79 2 155 -12
166 -29 9 -13 4 -61 -10 -112 -12 -45 -9 -80 7 -80 10 0 20 28 33 95 22 115
17 134 -51 209 l-49 53 49 69 c66 93 154 278 174 369 10 41 25 95 35 120 49
125 60 158 65 195 4 22 8 49 10 60 2 11 4 27 4 36 1 12 14 19 48 24 107 16
199 82 227 163 30 83 30 150 2 230 -14 40 -22 80 -19 89 5 12 2 15 -9 11 -12
-5 -17 9 -27 80 -7 48 -23 115 -37 148 -21 54 -24 72 -19 145 5 72 3 87 -13
108 -11 13 -24 21 -31 17 -7 -5 -4 -14 9 -29 17 -17 20 -34 19 -94 l-1 -73
-19 24 c-12 16 -18 38 -17 65 1 23 -2 44 -5 48 -4 3 -7 -8 -7 -25 0 -44 -11
-40 -34 11 -11 23 -21 45 -23 48 -2 4 11 9 28 13 36 7 32 18 -7 22 -14 2 -34
9 -43 17 -33 29 -41 29 -52 0z m72 -101 c13 -26 41 -73 62 -105 52 -78 74
-132 81 -192 7 -58 14 -98 25 -140 10 -39 -16 -125 -49 -165 -14 -17 -28 -30
-31 -30 -3 0 -3 19 1 42 5 23 6 46 5 52 -2 6 -6 40 -9 76 -10 119 -29 220 -42
220 -3 0 -3 -19 0 -42 21 -157 27 -290 14 -337 -6 -22 -30 -56 -59 -85 -28
-27 -57 -62 -65 -77 -19 -38 -23 -36 -19 6 2 19 0 37 -4 39 -4 3 -8 -5 -8 -17
-6 -76 -24 -110 -37 -69 -4 11 -17 29 -30 41 -23 22 -23 24 -10 75 8 30 21 71
30 92 18 44 30 103 18 91 -4 -4 -9 -14 -10 -21 -1 -7 -16 -43 -33 -80 -17 -37
-31 -73 -31 -80 0 -24 -14 -26 -37 -4 -13 12 -23 33 -23 47 0 31 40 145 100
291 51 123 130 353 124 359 -4 4 -44 -80 -49 -103 -1 -6 -6 -20 -10 -31 -4
-11 -28 -71 -52 -133 -24 -61 -61 -147 -82 -190 -22 -42 -42 -95 -46 -116 -6
-30 -10 -35 -17 -23 -5 11 0 50 16 115 31 122 42 148 123 294 50 91 68 134 80
197 15 76 17 80 34 66 9 -9 27 -37 40 -63z m-121 -77 c0 -13 -53 -116 -57
-111 -2 2 0 22 6 45 5 22 5 39 1 36 -8 -5 -28 -77 -37 -130 -3 -16 -9 -35 -14
-42 -6 -6 -21 -33 -34 -60 -24 -46 -25 -47 -19 -13 16 93 14 105 -6 45 -11
-33 -21 -77 -22 -97 -4 -49 -14 -49 -22 0 -3 20 -8 52 -11 70 -5 28 -1 38 25
62 33 30 39 46 15 36 -33 -12 -1 111 36 140 33 27 139 41 139 19z m-187 -390
c-3 -9 -8 -14 -10 -11 -3 3 -2 9 2 15 9 16 15 13 8 -4z m541 -130 c5 -49 -25
-145 -61 -192 -14 -18 -27 -32 -30 -30 -2 2 8 29 22 61 14 31 25 64 24 74 0 9
-10 -7 -21 -36 -12 -30 -40 -74 -62 -98 -33 -35 -53 -47 -101 -59 -75 -19
-100 -19 -55 1 43 19 87 59 107 99 13 26 10 24 -28 -15 -41 -42 -89 -77 -89
-65 0 24 60 115 98 149 87 77 109 101 126 133 9 18 16 36 16 42 0 5 5 22 11
38 l12 28 14 -45 c7 -25 15 -63 17 -85z m-542 -52 c22 -45 44 -73 84 -105 53
-41 102 -103 91 -114 -15 -15 -118 70 -143 119 -8 15 -19 27 -25 27 -6 0 -1
-16 11 -35 12 -19 20 -35 17 -35 -13 0 -48 42 -69 85 -34 66 -41 105 -27 141
l11 29 10 -25 c6 -14 24 -53 40 -87z m170 -342 c-5 -40 -6 -74 -2 -76 3 -2 7
5 7 16 4 52 25 129 34 123 6 -3 8 -18 5 -32 -22 -106 -16 -134 10 -45 l14 48
-6 -55 c-3 -30 -14 -75 -25 -99 -10 -24 -19 -51 -19 -60 -1 -9 -10 2 -22 23
-20 38 -25 91 -13 146 3 14 8 40 11 58 11 58 15 27 6 -47z m-2822 -980 l31
-40 -31 9 c-17 5 -34 9 -38 9 -4 1 -7 6 -6 11 1 6 2 19 3 30 2 27 5 26 41 -19z
m-760 -76 c36 -3 82 -9 103 -11 73 -8 232 -46 308 -74 491 -182 724 -594 804
-1425 22 -230 22 -842 1 -975 -3 -14 -7 -54 -11 -90 -6 -61 -16 -142 -30 -235
-31 -202 -103 -436 -185 -600 -112 -226 -252 -374 -461 -490 -77 -43 -278
-119 -342 -130 -18 -4 -52 -11 -77 -16 -25 -6 -65 -13 -90 -16 -25 -2 -58 -6
-75 -9 -85 -10 -285 -18 -495 -18 l-235 -1 -3 2040 c-1 1122 0 2045 2 2050 4
12 679 12 786 0z m2077 -194 c-52 -54 -107 -117 -122 -141 -31 -48 -58 -110
-50 -110 3 0 12 15 20 33 22 53 77 122 140 179 33 29 77 70 97 90 33 34 38 36
52 22 18 -17 20 -35 7 -49 -5 -6 -16 -34 -25 -63 -14 -49 -15 -127 -2 -227 2
-18 -5 -46 -19 -70 -12 -22 -30 -63 -39 -92 -31 -94 -63 -95 -70 -2 -3 30 -9
65 -15 79 -8 19 -9 10 -6 -40 l5 -65 -43 50 c-74 87 -211 213 -289 267 -27 18
-48 35 -48 38 2 24 233 141 334 170 42 12 91 27 109 35 23 9 36 10 45 3 9 -8
-10 -33 -81 -107z m-4442 -221 c-9 -15 -14 -116 -5 -129 3 -7 7 4 8 24 1 20 6
54 12 75 12 46 17 47 116 28 70 -12 70 -13 55 -83 -24 -105 -30 -300 -13 -400
6 -33 13 -89 17 -125 3 -36 8 -85 11 -110 6 -52 33 -154 39 -148 2 2 -2 24 -9
48 -46 152 -56 582 -18 759 7 34 9 34 90 51 48 10 85 13 88 8 3 -5 3 -26 -1
-46 -4 -20 -9 -47 -11 -58 -2 -12 -15 -60 -29 -108 -14 -47 -25 -90 -24 -94 1
-12 54 130 69 183 17 67 30 78 31 30 3 -72 -1 -95 -35 -208 -33 -110 -51 -198
-61 -307 -7 -86 -9 -279 -2 -287 4 -3 7 25 8 63 1 136 15 266 39 379 17 81 19
88 40 140 l19 50 -1 -55 c-1 -30 -9 -73 -19 -96 -10 -22 -16 -51 -13 -65 5
-19 4 -21 -6 -9 -9 12 -10 8 -5 -20 5 -28 4 -32 -5 -20 -10 12 -11 11 -7 -7 3
-13 1 -26 -4 -29 -5 -3 -7 -22 -4 -42 4 -27 3 -31 -4 -17 -6 15 -8 6 -7 -31 1
-66 12 -60 21 11 6 53 35 148 48 162 13 12 7 -88 -7 -115 -7 -15 -18 -49 -25
-77 -7 -27 -14 -58 -17 -67 -3 -10 -1 -18 5 -18 6 0 11 8 12 18 0 9 9 42 19
72 l18 55 1 -299 c0 -164 -3 -295 -7 -292 -16 16 -38 95 -39 141 l-2 50 12
-50 13 -50 1 95 c2 86 0 96 -16 96 -11 0 -17 -6 -14 -12 3 -7 -24 -20 -69 -34
-40 -12 -88 -33 -105 -46 -38 -29 -41 -25 -13 14 26 37 32 78 14 97 -19 18
-44 20 -45 3 -1 -7 -3 -35 -5 -62 -4 -54 -7 -61 -23 -51 -8 4 -8 12 -1 25 23
44 8 110 -32 131 -32 17 -39 -7 -17 -58 21 -49 25 -83 9 -83 -5 0 -10 5 -10
10 0 6 -7 10 -15 10 -8 0 -15 8 -16 18 -1 45 -9 93 -18 109 -11 22 -26 183
-17 183 4 0 18 -25 32 -56 14 -31 40 -76 59 -101 43 -56 46 -50 6 9 -29 43
-67 146 -74 203 -2 17 4 46 13 65 37 75 41 149 11 209 -22 42 -43 62 -90 86
l-33 17 6 61 c9 82 39 187 52 187 3 0 2 -5 -1 -10z m-55 -45 c-14 -38 -23 -91
-23 -147 l0 -47 -36 2 -36 2 0 61 c0 50 5 68 28 103 23 35 64 66 75 56 1 -1
-2 -15 -8 -30z m-354 -155 c51 -23 69 -39 107 -91 99 -140 180 -332 194 -461
3 -32 9 -58 13 -58 8 0 7 10 -11 115 -24 140 -91 302 -165 402 -30 39 -30 41
1 36 30 -6 39 -17 76 -90 17 -32 27 -47 24 -33 -4 14 -15 42 -26 63 -10 21
-19 41 -19 46 0 5 30 7 66 6 79 -4 132 -34 159 -91 21 -44 16 -103 -15 -203
-21 -64 -28 -172 -15 -222 6 -24 4 -26 -18 -22 -36 7 -42 -12 -15 -49 38 -53
60 -108 43 -108 -7 0 -20 -2 -28 -6 -9 -3 -19 6 -27 26 -19 46 -49 80 -71 80
-10 0 -19 -2 -19 -4 0 -2 -3 -11 -6 -20 -4 -10 5 -19 29 -30 46 -19 65 -51 36
-59 -11 -3 -23 -15 -26 -26 -11 -43 -29 -19 -65 84 -14 42 -44 58 -54 31 -11
-30 7 -71 51 -111 35 -31 43 -45 39 -63 -4 -12 -10 -22 -14 -22 -14 0 -40 30
-60 70 -23 45 -31 52 -49 41 -25 -16 6 -66 74 -119 32 -25 60 -87 45 -97 -5
-3 -29 19 -52 50 -52 67 -86 74 -79 16 2 -13 -50 21 -101 68 -31 27 -38 21
-10 -8 37 -39 156 -122 217 -152 55 -26 84 -53 72 -65 -2 -2 -39 14 -82 36
-43 22 -82 37 -86 34 -18 -11 -8 -35 24 -54 17 -11 27 -20 21 -20 -44 0 -294
227 -294 267 0 26 30 74 43 67 7 -4 2 4 -10 16 -19 20 -20 26 -8 44 22 35 28
112 11 145 -19 36 -68 77 -114 97 -48 20 -152 43 -152 34 0 -4 21 -13 48 -19
129 -33 198 -97 190 -176 -5 -43 -68 -186 -79 -180 -9 6 9 -97 26 -144 34 -96
103 -159 215 -196 93 -30 100 -36 35 -29 -134 14 -159 11 -196 -25 -19 -19
-27 -31 -18 -28 11 4 18 -6 27 -37 6 -22 22 -56 36 -75 33 -44 33 -36 1 20
-25 44 -34 119 -15 119 6 0 10 -13 10 -28 0 -16 6 -36 13 -45 10 -15 11 -10 9
31 -4 56 5 64 63 55 32 -5 38 -12 65 -67 16 -34 45 -76 65 -94 45 -41 46 -29
1 18 -29 30 -56 84 -56 111 0 5 8 9 19 9 13 0 24 -14 35 -45 21 -54 39 -70 21
-18 -7 20 -12 43 -10 52 3 26 23 23 34 -6 11 -27 11 -27 7 9 -4 36 -3 38 32
48 34 9 72 13 72 8 0 -2 7 -21 16 -43 l15 -40 -6 43 c-3 25 -1 42 5 42 5 0 9
-3 8 -7 -1 -5 4 -27 11 -50 10 -36 9 -46 -4 -66 -14 -22 -13 -27 11 -73 14
-27 37 -60 51 -74 l26 -25 -19 30 c-25 38 -54 102 -54 118 0 6 11 -5 25 -26
33 -48 41 -48 16 1 -28 56 -28 74 0 112 31 41 42 60 36 60 -2 0 -17 -19 -33
-42 l-29 -43 -5 40 c-5 36 -3 41 20 46 50 13 57 10 69 -30 11 -40 83 -155 104
-168 6 -4 1 11 -13 33 -41 69 -70 133 -70 156 1 20 2 20 15 -7 17 -39 18 -24
1 48 -8 31 -11 57 -6 57 4 0 10 -14 14 -30 7 -38 49 -128 71 -155 12 -15 11
-10 -4 20 -40 83 -59 197 -41 250 17 52 26 50 25 -8 -2 -95 41 -215 101 -282
l26 -30 -24 35 c-27 39 -56 103 -64 140 -14 66 -11 210 5 210 4 0 7 -17 8 -37
1 -74 3 -93 11 -93 4 0 6 20 4 45 -3 27 4 69 17 108 l22 64 54 15 55 15 0 -53
c0 -56 31 -154 55 -174 20 -17 20 -344 -1 -365 -8 -7 -14 -16 -14 -20 0 -3
-22 -35 -49 -71 l-50 -65 16 -51 c8 -28 19 -62 24 -76 5 -14 7 -27 4 -30 -3
-3 -5 -1 -5 4 0 6 -7 19 -15 30 -15 18 -16 17 -9 -16 6 -33 5 -34 -10 -15 -8
11 -16 25 -16 31 0 6 -7 17 -15 24 -12 10 -15 10 -15 -2 0 -8 4 -18 8 -24 10
-11 36 -71 28 -63 -4 4 -22 31 -40 61 l-33 55 34 18 c18 10 33 22 33 27 0 12
-6 10 -46 -11 -58 -31 -127 -35 -229 -13 -105 23 -231 26 -287 6 -21 -7 -58
-27 -83 -44 -51 -35 -99 -48 -118 -31 -8 6 -17 8 -20 4 -15 -14 -6 -31 23 -43
25 -11 37 -10 73 4 39 14 48 15 83 2 21 -8 37 -15 34 -16 -26 -8 -57 -11 -125
-12 -126 -1 -223 33 -370 132 -98 66 -155 97 -192 105 -49 10 -48 21 3 44 l45
22 68 -21 c37 -11 89 -31 114 -45 64 -33 60 -17 -4 18 -28 16 -48 31 -45 34
13 13 80 -23 142 -77 38 -33 88 -69 112 -80 24 -11 40 -25 37 -30 -10 -17 18
-23 30 -7 8 11 27 17 51 18 l39 1 -35 10 c-27 8 -31 12 -19 19 16 8 48 6 72
-6 6 -4 3 1 -7 9 -11 9 -29 16 -40 16 -20 1 -20 1 -3 14 10 8 32 12 50 10 28
-4 30 -3 12 7 -19 12 -19 12 0 20 11 4 43 5 70 3 l50 -4 -49 18 -49 18 31 13
c17 7 37 20 44 28 7 9 -1 7 -23 -6 -32 -19 -38 -19 -106 -6 -115 22 -150 45
-197 128 -30 55 -32 67 -11 67 8 0 15 4 15 9 0 13 -28 22 -35 11 -14 -22 -115
4 -115 30 0 10 -35 24 -65 26 -11 1 -28 2 -37 3 -23 1 -23 29 -1 61 l16 25
-26 -24 c-15 -14 -27 -35 -27 -47 0 -19 9 -25 57 -39 31 -9 68 -25 82 -36 13
-11 41 -22 62 -25 33 -6 39 -11 53 -48 30 -79 99 -131 205 -156 l54 -13 -27
-14 c-36 -19 -59 -10 -170 61 -111 71 -152 92 -240 121 -64 21 -284 79 -346
91 -42 8 -44 19 -21 91 23 73 22 86 -8 169 -12 30 -19 54 -18 54 5 0 155 -81
210 -114 26 -15 47 -24 47 -19 0 8 -74 57 -149 98 -101 56 -102 57 -84 77 9
10 20 18 24 18 4 0 43 -24 86 -54 91 -62 231 -135 355 -182 126 -49 132 -42 8
9 -141 58 -309 153 -409 233 -9 8 90 94 108 94 12 0 44 -11 73 -25 62 -30 76
-25 22 7 -34 20 -36 23 -17 26 29 4 174 -71 241 -126 40 -32 49 -37 37 -18
-21 31 -70 70 -158 122 -76 46 -75 55 6 60 51 2 82 -7 129 -38 14 -10 30 -18
36 -18 5 0 10 32 11 70 2 91 -16 129 -90 186 -114 87 -126 138 -56 224 63 78
68 86 82 127 l13 38 8 -30 c18 -78 120 -252 239 -410 87 -116 118 -144 49 -45
-108 156 -184 274 -213 330 -38 74 -83 200 -71 200 6 0 10 -6 10 -12 0 -7 14
-33 30 -58 16 -25 30 -40 30 -34 0 5 -4 14 -9 20 -15 16 -42 110 -36 127 9 22
73 45 110 40 16 -2 58 -17 91 -33z m7439 -88 c6 -46 -94 -192 -131 -192 -19 0
-24 41 -7 66 10 16 14 36 10 59 l-6 35 32 -17 32 -16 -32 31 c-41 38 -41 51
-2 59 26 5 28 8 14 15 -14 9 -15 12 -2 26 8 10 18 28 22 41 7 22 9 21 37 -28
16 -28 31 -64 33 -79z m-975 84 c0 -3 -4 -8 -10 -11 -5 -3 -10 -1 -10 4 0 6 5
11 10 11 6 0 10 -2 10 -4z m-10 -76 c0 -5 -2 -10 -4 -10 -3 0 -8 5 -11 10 -3
6 -1 10 4 10 6 0 11 -4 11 -10z m824 -31 c-2 -4 2 -19 10 -34 11 -21 12 -33 4
-51 -6 -13 -14 -24 -18 -24 -3 0 -22 16 -41 36 l-34 35 30 -10 30 -11 -24 21
-25 20 29 25 c21 18 31 21 36 12 4 -7 6 -15 3 -19z m-798 -155 c3 -38 6 -78 9
-89 2 -11 4 -26 4 -34 1 -8 4 -12 7 -8 4 3 6 48 6 99 -1 82 1 91 13 73 8 -11
18 -24 23 -30 42 -51 56 -189 30 -290 l-13 -50 -60 -2 c-33 -1 -74 0 -92 3
-39 6 -88 55 -109 110 -18 47 -10 88 28 152 33 54 68 126 68 140 0 6 5 12 10
12 8 0 16 -70 11 -102 0 -4 -1 -53 -2 -109 -1 -91 1 -104 20 -123 l22 -21 -17
34 c-14 27 -15 48 -9 120 4 47 8 117 8 154 0 67 1 68 19 49 14 -14 21 -38 24
-88z m-658 90 c-15 -14 -164 -102 -167 -98 -10 10 66 75 103 88 43 15 73 20
64 10z m-4988 -69 c-15 -39 -23 -25 -8 16 6 18 13 29 15 23 2 -6 -1 -24 -7
-39z m4956 0 c-9 -14 -22 -25 -29 -26 -6 0 -23 -3 -36 -5 -14 -2 -21 -1 -17 3
14 15 91 61 95 57 2 -2 -4 -15 -13 -29z m-131 5 c-10 -11 -23 -30 -29 -42 -6
-12 -27 -31 -46 -42 l-35 -21 19 30 c25 38 55 69 81 83 29 16 30 15 10 -8z
m95 -69 c-16 -31 -47 -47 -124 -66 -72 -18 -169 -35 -163 -29 2 2 48 27 103
55 81 42 177 73 192 63 2 -1 -1 -12 -8 -23z m-230 -46 c-7 -8 -17 -15 -23 -15
-5 0 -2 9 8 20 21 23 35 19 15 -5z m140 -46 c-44 -38 -134 -82 -180 -87 -40
-4 -118 -6 -170 -3 l-35 1 29 15 c15 8 39 15 53 15 13 0 37 7 53 15 16 9 65
22 109 30 44 9 97 22 118 30 57 21 62 17 23 -16z m-541 -54 c-35 -19 -42 -19
-50 2 -6 16 -2 18 34 14 40 -3 40 -4 16 -16z m16 -35 c-33 -34 -45 -38 -45
-12 0 11 13 25 33 34 43 21 47 14 12 -22z m135 29 c0 -8 -33 -29 -46 -29 -3 0
-1 7 6 15 7 8 9 15 4 15 -5 0 -20 -16 -33 -36 -13 -19 -33 -39 -43 -45 -30
-16 -21 -24 35 -27 28 -2 64 -4 79 -5 40 -3 46 -17 7 -19 -83 -4 -124 3 -141
23 -17 20 -16 22 19 70 34 44 41 49 75 47 21 -1 38 -5 38 -9z m103 -46 c105 4
107 -1 15 -43 -39 -17 -72 -18 -153 -5 -11 2 -29 4 -40 4 -15 1 -8 9 25 30 25
15 48 24 51 19 3 -4 49 -7 102 -5z m570 -22 c4 -4 -18 -13 -50 -21 -31 -7 -89
-28 -128 -46 -62 -29 -81 -34 -144 -33 -40 1 -71 2 -69 4 2 2 28 17 58 35 67
40 121 60 180 67 25 3 46 6 48 8 5 5 98 -7 105 -14z m132 -40 c-3 -3 -13 -6
-23 -7 -71 -10 -106 -18 -172 -39 -54 -17 -86 -21 -110 -16 l-35 7 35 13 c196
75 211 79 262 63 26 -9 45 -18 43 -21z m70 -32 c25 -12 45 -24 45 -28 0 -3
-19 -6 -43 -5 -23 0 -71 -5 -107 -12 -36 -6 -74 -10 -85 -8 -10 2 -34 5 -52 6
-18 1 -30 5 -25 8 13 12 172 56 210 59 7 1 32 -8 57 -20z m-599 -4 c-20 -15
-36 -19 -36 -10 0 5 38 23 50 24 3 0 -4 -6 -14 -14z m32 -56 c35 -8 87 -40
137 -84 l30 -27 -30 8 c-50 12 -117 43 -167 77 -51 34 -63 53 -25 41 12 -4 37
-10 55 -15z m124 -15 c15 -8 50 -37 77 -65 28 -29 51 -47 51 -42 0 5 -28 37
-61 71 -57 57 -59 61 -31 52 42 -12 129 -70 177 -119 39 -41 39 -41 13 -41
-15 0 -39 5 -55 11 -15 6 -37 12 -48 14 -38 5 -75 17 -75 24 0 8 -71 80 -105
106 -19 16 -19 16 5 9 14 -3 37 -13 52 -20z m183 0 c32 -12 178 -110 199 -133
l19 -21 -66 3 -66 4 -63 64 c-35 36 -74 72 -88 82 l-25 17 35 -4 c19 -2 44 -7
55 -12z m184 -40 c55 -32 125 -93 117 -101 -2 -2 -16 -6 -31 -9 -22 -4 -36 4
-74 39 -26 24 -66 57 -89 72 -23 15 -42 31 -42 35 0 15 67 -5 119 -36z m-5733
-88 c3 -8 12 -12 20 -9 8 3 14 1 14 -4 0 -5 15 -16 33 -25 19 -9 47 -33 64
-55 29 -37 29 -39 15 -73 l-14 -35 -35 40 c-34 39 -35 39 -12 5 12 -19 31 -44
41 -56 16 -18 17 -25 7 -48 -7 -14 -16 -26 -21 -26 -18 0 -79 144 -77 180 4
51 -15 80 -51 80 -32 0 -37 9 -18 28 16 16 27 15 34 -2z m89 4 c-3 -5 2 -10
12 -11 34 -1 54 -7 79 -23 29 -20 29 -23 4 -61 -12 -18 -20 -24 -20 -14 0 21
-47 65 -90 83 -24 11 -29 15 -15 16 17 0 17 2 5 10 -12 8 -10 10 8 10 13 0 20
-4 17 -10z m4897 -2 c-23 -23 -12 -28 21 -11 51 27 186 24 262 -6 33 -13 64
-28 70 -33 5 -4 -29 -8 -75 -9 -47 0 -94 -2 -105 -4 -87 -15 -93 -15 -166 19
l-74 34 35 10 c47 14 46 14 32 0z m-112 -8 c13 -8 13 -10 -2 -10 -9 0 -20 5
-23 10 -8 13 5 13 25 0z m25 -50 c17 -66 15 -80 -10 -80 -26 0 -25 -1 -29 82
-2 35 30 34 39 -2z m-5325 -27 c76 -106 226 -223 286 -223 12 0 15 -3 8 -10
-9 -9 -37 -6 -120 13 -51 12 -135 61 -167 97 -36 39 -57 92 -57 143 0 38 12
34 50 -20z m702 20 c-3 -16 -7 -22 -10 -15 -4 13 4 42 11 42 2 0 2 -12 -1 -27z
m4658 12 c0 -9 14 -46 31 -83 17 -37 38 -83 46 -102 l14 -35 -26 30 c-35 41
-61 93 -69 138 -4 21 -10 45 -13 53 -3 8 0 14 6 14 6 0 11 -7 11 -15z m-4920
-60 c0 -64 20 -134 47 -166 17 -20 8 -29 -29 -29 -22 0 -31 6 -38 26 -20 52
-26 100 -18 134 23 93 23 87 -1 66 -25 -22 -28 -11 -4 16 31 35 43 23 43 -47z
m5000 32 c0 -26 86 -187 130 -243 28 -35 48 -64 45 -64 -13 0 -111 69 -131 91
-11 13 -27 40 -34 59 -7 19 -19 50 -27 67 -13 31 -43 112 -43 118 0 2 14 -2
30 -8 17 -6 30 -15 30 -20z m424 -28 c26 -17 46 -33 44 -34 -2 -2 -42 -6 -89
-10 -92 -6 -124 -11 -139 -20 -8 -5 -49 14 -139 65 -30 17 -35 15 89 28 130
14 181 7 234 -29z m-310 -44 c9 -37 81 -139 145 -207 33 -36 61 -68 61 -70 0
-10 -114 33 -133 50 -43 38 -124 173 -152 253 l-14 39 44 -23 c24 -12 46 -31
49 -42z m-207 -12 c3 -10 15 -30 25 -45 10 -14 18 -28 18 -30 0 -7 -79 -3 -86
5 -5 4 0 5 11 1 19 -7 19 -6 4 12 -9 10 -19 31 -21 47 -5 23 -2 27 19 27 13 0
26 -7 30 -17z m393 -98 c79 -87 207 -212 234 -230 41 -27 31 -34 -31 -20 -93
19 -128 41 -196 124 -58 70 -154 198 -171 229 -18 30 122 -57 164 -103z m248
66 c23 -18 42 -36 42 -40 0 -4 18 -20 40 -37 22 -16 40 -31 40 -34 0 -3 -44
-5 -98 -5 -80 1 -105 5 -144 24 -80 38 -79 40 65 42 49 1 86 4 83 6 -10 10
-164 12 -195 3 -24 -7 -41 -3 -80 18 -28 14 -50 27 -48 28 1 2 25 6 52 9 86
10 119 15 122 19 2 1 20 2 41 2 27 -1 51 -11 80 -35z m5 -215 c78 -80 78 -80
26 -16 -28 35 -47 66 -42 67 13 5 80 -24 88 -37 4 -6 10 -8 15 -5 4 3 44 -4
88 -15 45 -11 95 -22 112 -24 50 -6 44 -12 -32 -35 l-73 -22 -42 48 c-22 27
-44 45 -48 41 -4 -4 11 -24 34 -44 23 -21 41 -41 41 -45 0 -15 -50 -15 -66 0
-17 15 -17 15 -5 -1 12 -16 10 -18 -28 -18 -46 0 -58 8 -177 130 -75 77 -114
120 -114 127 0 2 33 -13 73 -33 53 -27 92 -57 150 -118z m-5639 119 c22 -3 42
-8 45 -12 10 -10 -89 6 -107 17 -15 10 -14 10 3 6 11 -3 38 -7 59 -11z m574
-572 l0 -238 -30 60 c-27 54 -29 64 -18 93 13 36 -5 114 -39 175 l-18 33 43
50 c24 27 44 52 44 57 0 4 4 7 9 7 6 0 9 -99 9 -237z m-498 28 c-80 -39 -163
-49 -221 -29 -36 12 -32 20 27 48 59 27 154 38 219 26 l50 -10 -75 -35z
m-2985 -2811 c39 -13 80 -30 92 -39 12 -9 62 -69 110 -133 48 -65 93 -118 99
-118 6 0 17 -6 24 -14 6 -8 17 -13 25 -10 8 4 26 -17 49 -56 20 -34 36 -65 36
-70 0 -20 57 -71 73 -64 13 4 31 -27 91 -151 42 -87 76 -159 76 -161 0 -1 32
-68 70 -148 83 -174 94 -232 20 -106 -83 139 -181 245 -332 358 -77 57 -93 54
-27 -5 110 -97 252 -253 231 -253 -6 0 -12 4 -14 8 -1 4 -25 23 -53 42 -141
97 -223 180 -346 353 -50 70 -93 127 -95 127 -11 0 2 -25 63 -115 121 -183
203 -282 277 -338 94 -72 174 -139 196 -163 l25 -28 -37 27 c-20 15 -39 27
-43 27 -3 0 -38 22 -78 49 -240 162 -472 470 -741 984 -31 59 -56 109 -56 112
0 2 44 -18 98 -44 53 -27 129 -59 167 -71z m1611 -14 c-14 -31 -47 -82 -74
-114 -50 -58 -209 -289 -274 -397 -51 -85 -67 -114 -149 -273 -40 -78 -74
-140 -76 -138 -13 13 149 331 241 476 89 140 348 511 353 507 2 -3 -7 -30 -21
-61z m-102 -228 c-4 -24 -11 -48 -16 -55 -5 -7 -6 -18 -2 -25 4 -7 4 -10 0 -6
-4 3 -25 -27 -46 -69 -21 -41 -70 -116 -109 -167 -39 -51 -71 -100 -71 -109 0
-20 26 -23 33 -4 17 43 136 59 240 32 67 -17 334 -123 422 -168 187 -94 335
-228 408 -372 47 -93 58 -154 62 -330 2 -91 7 -171 10 -178 4 -6 0 -4 -8 6 -8
10 -18 41 -22 70 -4 29 -8 59 -10 67 -2 8 -6 35 -9 60 -23 153 -83 308 -151
387 -34 40 -108 85 -157 97 -45 10 -32 -10 17 -28 58 -23 133 -99 169 -172 16
-31 29 -62 30 -68 1 -6 5 -16 8 -22 7 -11 8 -15 32 -134 16 -84 23 -127 32
-200 5 -41 3 -50 -10 -50 -10 0 -17 13 -21 38 -12 70 -38 157 -71 236 -38 90
-114 226 -126 226 -4 0 10 -36 32 -80 88 -176 157 -420 118 -420 -8 0 -31 -9
-53 -20 -22 -11 -40 -20 -42 -20 -2 0 -17 25 -35 56 -18 31 -41 70 -52 87 -94
160 -148 288 -161 385 -4 28 -11 52 -17 52 -10 0 -7 -51 8 -130 8 -42 103
-244 174 -370 28 -51 50 -93 48 -94 -2 0 -17 -11 -34 -23 l-32 -22 -75 64
c-125 106 -317 341 -453 552 -69 105 -63 98 -70 90 -13 -13 146 -267 254 -407
73 -93 237 -261 294 -300 l36 -24 -24 -48 -24 -47 -60 30 c-56 28 -289 119
-304 119 -3 0 -29 11 -58 25 -58 28 -58 28 -58 17 0 -10 60 -38 180 -84 47
-18 131 -58 187 -88 100 -54 102 -56 102 -90 -1 -64 -6 -70 -52 -64 -300 34
-562 167 -702 357 -93 125 -126 250 -131 497 -4 190 10 261 72 388 20 41 34
76 31 79 -14 13 -102 -135 -112 -190 -3 -12 -18 -43 -35 -70 -16 -26 -30 -50
-30 -52 0 -3 -25 -42 -55 -88 -30 -46 -66 -107 -80 -136 -31 -60 -40 -66 -21
-13 24 66 39 95 113 215 40 64 109 190 155 280 45 89 112 212 148 272 67 111
183 293 188 294 1 1 -1 -18 -4 -41z m-25 -135 c-16 -63 -93 -211 -112 -216 -9
-3 -14 -1 -11 4 3 6 21 33 39 61 29 44 58 107 79 171 10 33 14 17 5 -20z
m1763 -281 c49 -22 141 -112 195 -192 l38 -55 0 -125 c0 -152 -9 -229 -36
-317 -61 -199 -195 -316 -425 -372 -66 -16 -254 -36 -254 -27 0 2 28 20 63 41
95 59 244 182 232 193 -1 2 -47 -26 -101 -61 -97 -63 -227 -137 -240 -137 -4
0 11 14 32 31 132 104 508 474 498 490 -6 10 -18 1 -98 -76 -17 -16 -69 -64
-115 -105 -46 -41 -89 -80 -95 -85 -27 -25 -186 -154 -236 -192 -30 -23 -64
-50 -75 -60 -18 -16 -55 -21 -55 -6 0 3 18 43 39 88 64 136 151 258 336 472
80 92 99 123 75 123 -20 0 -267 -257 -333 -345 -57 -77 -133 -213 -178 -320
l-12 -30 -8 35 c-5 19 -8 98 -8 175 0 77 -2 157 -6 178 -10 58 -42 145 -76
206 l-31 55 83 81 c147 141 286 235 451 303 155 64 251 74 340 34z m-2155
-442 c-2 -38 -5 -71 -8 -73 -24 -20 -99 -66 -99 -62 0 8 104 205 108 205 2 0
1 -31 -1 -70z m4 -175 c1 -30 2 -58 3 -62 1 -5 6 -34 10 -67 4 -32 14 -77 22
-99 8 -22 12 -43 8 -46 -3 -3 -53 42 -110 101 -96 99 -103 109 -93 131 9 21
127 95 152 97 4 0 8 -25 8 -55z m1219 -455 c0 -5 7 -10 15 -10 16 0 19 -17 9
-44 -9 -22 -51 -20 -64 3 -13 25 -13 27 6 45 18 18 34 21 34 6z m150 -61 c-14
-24 -56 -25 -69 0 -21 38 33 72 61 39 14 -15 15 -24 8 -39z m-225 -19 c-9 -27
-61 -28 -68 -1 -5 22 7 46 20 38 5 -3 15 -2 23 3 19 12 34 -13 25 -40z m310 0
c-3 -10 1 -25 10 -34 12 -12 13 -16 3 -16 -34 1 -56 42 -36 67 14 17 30 5 23
-17z m2520 -42 c6 -5 -301 -73 -375 -83 -25 -4 -58 -9 -75 -12 -38 -6 -230 -6
-270 1 -16 2 -64 10 -105 16 -41 6 -91 16 -110 20 -19 5 -48 11 -64 14 -43 8
-42 14 0 22 99 20 314 -2 417 -41 10 -4 17 -3 17 4 0 9 -87 40 -155 54 -11 3
3 5 31 6 36 1 90 -11 175 -39 67 -22 127 -39 133 -37 13 5 -41 29 -119 53 -30
10 -55 20 -55 23 0 7 549 6 555 -1z m-1167 -8 c-9 -6 -56 -9 -105 -8 -48 1
-140 0 -203 -1 -144 -3 -142 -3 -135 9 4 6 92 10 233 10 151 -1 221 -4 210
-10z m-1649 -19 c16 -30 -12 -57 -55 -52 -18 2 -25 30 -14 52 14 24 56 25 69
0z m-115 3 c10 -4 16 -18 16 -35 0 -22 -6 -30 -24 -35 -14 -3 -29 -3 -34 0
-17 11 -20 46 -5 61 16 17 24 18 47 9z m276 -46 c6 -18 4 -27 -12 -40 -19 -17
-19 -19 -4 -49 21 -42 20 -56 -3 -69 -26 -14 -43 -6 -63 31 -23 39 -23 55 1
71 13 10 17 18 11 28 -13 21 7 50 36 50 16 0 28 -8 34 -22z m131 2 c21 -12 25
-40 7 -58 -20 -20 -48 -14 -60 14 -11 22 -10 28 7 40 23 17 21 17 46 4z m162
-11 c13 -21 -15 -69 -41 -69 -40 0 -54 40 -25 72 20 22 51 20 66 -3z m-529
-65 c8 -20 -10 -60 -30 -68 -35 -13 -56 32 -34 73 11 21 55 18 64 -5z m113
-21 c33 -29 46 -62 32 -79 -18 -22 -41 -17 -72 15 -29 32 -34 50 -15 69 17 17
31 15 55 -5z m241 -25 c4 -36 -26 -53 -56 -32 -38 26 -19 67 28 62 19 -2 26
-10 28 -30z m-322 -26 c37 -25 9 -77 -33 -61 -25 9 -30 38 -11 57 14 14 28 15
44 4z m494 -20 c56 -4 22 -62 -35 -62 -8 0 -15 -7 -15 -15 0 -8 -3 -15 -7 -16
-5 0 -16 -2 -25 -4 -27 -5 -41 20 -34 59 7 37 16 44 59 41 15 -1 41 -2 57 -3z
m-626 -35 c12 -19 0 -47 -23 -55 -10 -3 -10 0 -2 16 19 35 14 54 -11 47 -18
-5 -20 -4 -8 4 19 13 30 10 44 -12z m310 -3 c12 -11 13 -20 6 -34 -15 -27 -27
-32 -50 -20 -25 13 -26 45 -2 59 23 14 28 14 46 -5z m126 -39 c18 -22 20 -87
3 -106 -8 -10 -23 -15 -33 -12 -21 5 -35 36 -25 53 3 5 1 19 -5 30 -21 39 31
69 60 35z m-212 -64 c2 -13 -2 -28 -10 -32 -8 -5 -9 -9 -2 -9 6 0 17 -14 24
-30 14 -35 1 -60 -31 -60 -24 0 -53 44 -46 71 3 12 0 30 -6 41 -10 16 -9 22 8
34 28 21 59 14 63 -15z m402 9 c11 -21 8 -32 -17 -62 -11 -13 -21 -14 -46 -7
-39 11 -48 26 -35 55 17 37 81 46 98 14z m-277 -60 c7 -28 -34 -50 -58 -30
-20 17 -19 47 2 59 22 12 49 -2 56 -29z m-259 4 c16 -15 9 -45 -13 -59 -12 -7
-54 52 -46 65 9 15 42 12 59 -6z m385 -76 c17 -43 -31 -85 -64 -58 -18 15 -19
52 -3 68 20 20 58 14 67 -10z m-171 -40 c14 -14 16 -54 3 -63 -5 -3 -12 -1
-16 5 -4 6 -11 8 -16 4 -11 -6 -39 13 -39 27 0 12 30 39 44 39 6 0 17 -5 24
-12z m-756 -415 c-10 -18 -118 -51 -227 -69 -98 -17 -243 1 -339 41 -48 20
-42 27 15 17 54 -9 290 -8 379 2 36 4 90 13 120 20 30 7 56 11 58 10 2 -1 -1
-11 -6 -21z"/>
<path d="M6547 10143 c-4 -3 -7 -16 -6 -27 0 -19 1 -19 10 3 10 24 8 36 -4 24z"/>
<path d="M6410 10031 c0 -6 4 -13 10 -16 6 -3 7 1 4 9 -7 18 -14 21 -14 7z"/>
<path d="M6060 10090 c0 -5 5 -10 11 -10 5 0 7 5 4 10 -3 6 -8 10 -11 10 -2 0
-4 -4 -4 -10z"/>
<path d="M5710 9926 c0 -2 8 -10 18 -17 15 -13 16 -12 3 4 -13 16 -21 21 -21
13z"/>
<path d="M6381 9675 c1 -19 18 -51 18 -35 0 8 -4 22 -9 30 -5 8 -9 11 -9 5z"/>
<path d="M5386 9631 c17 -17 194 -86 194 -76 0 1 -24 15 -52 31 -29 15 -64 33
-78 41 -28 15 -79 18 -64 4z"/>
<path d="M5590 9550 c0 -12 8 -12 35 0 18 8 17 9 -7 9 -16 1 -28 -3 -28 -9z"/>
<path d="M6050 9395 c-10 -13 -8 -22 13 -54 34 -51 65 -84 102 -106 24 -14 22
-11 -9 15 -38 33 -96 114 -96 134 0 6 14 -5 30 -24 l30 -35 -25 40 c-33 50
-30 48 -45 30z"/>
<path d="M6006 9351 c-7 -10 41 -68 49 -59 3 3 -1 11 -10 18 -8 7 -15 18 -15
26 0 16 -17 27 -24 15z"/>
<path d="M11120 12636 c-41 -8 -105 -16 -143 -20 -37 -3 -86 -14 -110 -23 -61
-24 -131 -77 -152 -116 l-18 -35 -38 25 c-32 21 -47 24 -116 23 -43 -1 -130 1
-193 4 -152 8 -152 8 -326 -159 -58 -56 -71 -89 -81 -207 -3 -40 -6 -78 -7
-83 -1 -6 -12 -30 -24 -54 -26 -50 -23 -95 6 -89 9 2 17 10 18 18 2 32 5 38
24 63 l21 26 62 -50 c72 -58 119 -85 67 -39 -127 115 -125 112 -117 229 5 81
30 145 80 205 l24 29 38 -47 c51 -60 66 -60 20 1 -19 25 -34 51 -32 57 4 14
105 66 126 66 16 0 58 -58 114 -155 15 -27 25 -39 21 -25 -7 26 -49 108 -79
154 -10 15 -16 29 -13 31 6 6 63 7 183 1 l109 -6 18 -45 c10 -25 20 -57 22
-71 3 -15 8 -29 12 -33 8 -8 -4 83 -16 115 -16 42 -12 45 31 24 33 -18 40 -25
35 -43 -3 -12 -1 -29 4 -37 8 -12 10 -10 10 8 0 48 42 122 85 152 l43 29 -8
-33 c-9 -43 -5 -199 7 -219 4 -9 7 32 6 99 -1 67 2 124 9 139 13 29 42 44 34
17 -12 -39 -16 -82 -7 -82 4 0 11 17 14 38 10 61 23 71 102 76 114 8 210 18
217 22 4 3 -7 -26 -24 -63 -35 -77 -70 -174 -65 -180 2 -2 17 27 33 64 66 154
75 168 117 171 20 2 37 1 37 -2 0 -3 -9 -28 -20 -56 -30 -76 -23 -84 11 -12
32 71 42 73 109 24 46 -35 56 -48 79 -107 32 -85 35 -143 10 -211 -22 -57 -66
-136 -81 -142 -5 -2 -8 -8 -8 -13 0 -28 60 52 99 134 l23 48 33 -48 c41 -60
80 -97 94 -88 17 10 14 18 -33 79 -46 59 -61 93 -71 161 -10 77 -17 100 -40
141 -63 109 -201 152 -385 120z"/>
<path d="M10681 12317 c-1 -32 -17 -65 -62 -132 -56 -82 -44 -160 35 -234 124
-115 135 -130 162 -220 13 -42 19 -145 7 -111 -21 58 -67 134 -120 199 -1 2
-6 2 -9 -2 -4 -3 9 -28 28 -55 35 -48 61 -97 72 -138 5 -18 1 -23 -21 -27 -15
-3 -28 -5 -29 -4 0 1 -20 36 -44 77 -42 71 -85 119 -265 290 -56 53 -65 59
-49 31 10 -18 59 -70 109 -115 49 -44 104 -96 121 -115 37 -41 111 -177 102
-187 -4 -3 -35 19 -70 51 -88 80 -303 223 -316 211 -3 -3 -3 -7 -1 -9 60 -44
235 -173 239 -177 3 -3 25 -21 50 -40 25 -18 49 -37 54 -41 4 -4 -5 -14 -22
-23 -25 -13 -31 -13 -35 -2 -15 39 -235 170 -371 221 -37 14 -86 35 -108 46
-22 11 -42 18 -44 16 -8 -8 67 -48 156 -83 47 -19 131 -62 186 -96 136 -81
180 -121 168 -152 -5 -14 -12 -11 -42 15 -53 47 -120 72 -247 94 -108 19 -211
69 -261 128 -10 12 -41 48 -68 80 -27 32 -51 55 -53 53 -11 -11 56 -115 108
-167 51 -51 136 -103 184 -113 11 -3 56 -12 100 -21 98 -20 169 -53 226 -105
42 -37 43 -39 19 -41 -14 0 -34 -2 -45 -3 -53 -3 -309 94 -380 145 -22 16 -54
32 -71 35 -45 7 -84 25 -138 61 -53 36 -91 41 -135 19 -35 -19 -83 -81 -79
-103 2 -12 10 -7 28 19 54 80 108 85 194 19 34 -26 66 -41 96 -46 26 -4 67
-21 96 -41 63 -42 304 -140 363 -147 54 -6 166 24 166 44 0 8 -8 13 -17 13
-10 -1 -18 4 -18 12 0 8 5 14 10 14 6 0 10 9 10 19 0 11 5 23 10 26 6 3 10 1
10 -4 0 -21 29 -10 54 20 14 17 26 25 26 19 0 -8 10 -10 25 -7 18 3 29 -1 36
-14 10 -19 39 -25 52 -12 4 3 0 15 -10 25 -21 23 -10 34 20 21 15 -7 23 -20
25 -42 1 -17 -2 -32 -8 -32 -40 -5 -52 -17 -40 -40 11 -20 5 -23 -31 -20 -9 1
-19 -8 -23 -21 -5 -18 -8 -20 -15 -9 -5 8 -16 11 -25 8 -20 -8 -9 -39 13 -35
9 2 22 -3 28 -12 11 -13 15 -12 32 10 22 28 24 27 38 -15 6 -16 16 -29 22 -28
6 2 11 -3 11 -11 0 -23 20 -30 37 -13 12 12 13 19 3 36 -8 16 -8 26 -1 35 8
10 7 16 -3 25 -24 20 -26 50 -3 66 18 12 19 18 9 39 -8 19 -8 27 0 32 6 4 8 3
5 -3 -4 -6 0 -16 8 -23 12 -10 16 -9 21 4 9 24 24 9 24 -25 0 -16 2 -29 5 -29
3 0 25 14 48 30 94 68 311 203 360 224 102 42 155 76 195 121 62 70 73 118 64
263 -3 32 -22 17 -22 -16 -1 -49 -39 -65 -169 -72 -97 -5 -122 -9 -154 -28
-56 -35 -95 -90 -117 -163 -16 -54 -80 -159 -97 -159 -5 0 -2 5 34 63 13 21
23 43 21 49 -2 6 -16 -9 -30 -33 -34 -57 -148 -195 -148 -180 0 7 11 27 24 44
73 95 176 372 221 592 9 44 18 90 21 103 2 12 0 22 -6 22 -5 0 -9 -3 -8 -7 6
-28 -63 -285 -111 -416 -51 -137 -91 -222 -131 -275 -39 -55 -50 -48 -16 10
44 76 125 302 142 398 3 14 7 33 10 44 4 12 2 16 -5 12 -5 -4 -13 -23 -17 -44
-16 -89 -160 -442 -180 -442 -3 0 -3 3 -1 8 3 4 8 30 12 57 4 28 9 66 12 85
18 129 2 485 -23 509 -3 3 -4 -7 -1 -24 28 -149 29 -371 2 -505 -3 -14 -8 -41
-12 -60 -4 -19 -6 -41 -5 -47 3 -15 -24 -18 -33 -4 -3 6 -7 58 -9 118 -3 98
-30 253 -43 253 -3 0 -3 -15 1 -32 4 -18 9 -67 12 -108 l5 -75 -24 50 c-25 50
-78 107 -150 160 -76 56 -87 125 -34 208 42 66 55 105 46 137 l-7 25 -1 -28z
m978 -338 c-22 -96 -78 -162 -174 -204 -33 -15 -79 -35 -102 -46 -38 -17 -130
-73 -226 -137 -20 -14 -39 -23 -42 -20 -2 2 22 37 55 78 53 65 90 140 90 184
0 6 11 28 25 48 34 50 93 76 190 83 77 6 155 31 169 54 15 24 24 0 15 -40z
m-591 -404 c-45 -73 -58 -85 -58 -56 0 10 4 21 8 23 4 2 25 24 47 51 22 26 40
47 42 47 1 0 -16 -29 -39 -65z m-168 -185 c0 -5 -4 -10 -10 -10 -5 0 -10 5
-10 10 0 6 5 10 10 10 6 0 10 -4 10 -10z"/>
<path d="M12509 11856 c-3 -3 -27 -8 -54 -11 -28 -4 -69 -16 -92 -27 -43 -20
-89 -66 -77 -77 3 -3 13 4 21 17 9 12 21 22 28 22 18 0 46 -109 47 -180 1 -79
8 -70 15 17 4 54 0 82 -16 128 -12 33 -21 60 -21 61 0 7 66 16 116 16 51 0
128 -23 162 -48 2 -1 -4 -14 -13 -28 -9 -14 -15 -31 -13 -37 2 -7 14 4 26 23
17 27 27 35 42 31 35 -9 68 -60 81 -123 14 -71 35 -96 45 -55 10 42 -13 127
-46 167 -42 51 -227 127 -251 104z"/>
<path d="M12220 11694 c-19 -14 -54 -35 -77 -46 -81 -38 -131 -124 -118 -200
3 -18 23 -62 44 -98 49 -83 81 -170 81 -218 0 -20 -8 -75 -18 -122 -10 -47
-17 -91 -16 -97 1 -7 2 -17 3 -23 5 -40 37 29 56 118 28 134 9 226 -80 376
-52 89 -36 172 44 221 56 35 131 95 131 105 0 15 -12 11 -50 -16z"/>
<path d="M12800 11543 c0 -6 11 -25 25 -42 l26 -30 -23 -12 c-37 -19 -187
-148 -199 -171 -6 -12 15 2 47 30 33 29 88 72 124 97 l65 44 18 -20 c9 -12 17
-38 18 -58 1 -51 6 -71 29 -116 28 -54 25 -82 -14 -164 -33 -69 -38 -107 -21
-158 7 -21 25 -30 37 -18 3 3 2 23 -2 45 -8 43 -12 41 90 55 53 8 113 25 107
31 -3 3 -24 0 -48 -5 -24 -6 -67 -12 -96 -14 -57 -4 -57 -5 -17 72 25 50 30
115 10 146 l-16 25 44 12 c56 15 51 28 -6 17 -24 -4 -46 -4 -51 0 -4 4 -9 30
-10 58 -2 31 -11 61 -24 79 l-21 30 32 22 c33 23 86 30 86 12 0 -5 7 -10 17
-10 14 0 14 2 -2 20 -10 11 -29 20 -43 20 -29 0 -102 -39 -102 -54 0 -7 -3 -8
-8 -1 -19 25 -72 68 -72 58z"/>
<path d="M10734 11498 c-4 -6 2 -19 14 -29 12 -9 22 -25 22 -34 0 -10 6 -15
17 -13 22 4 27 23 10 39 -7 8 -16 22 -20 32 -7 19 -32 23 -43 5z"/>
<path d="M10685 11458 c-9 -42 0 -63 26 -60 33 5 43 17 34 39 -5 10 -9 23 -9
28 -1 6 -11 11 -23 13 -16 2 -24 -3 -28 -20z"/>
<path d="M10956 11445 c-8 -31 0 -46 19 -38 19 7 20 63 1 63 -8 0 -17 -11 -20
-25z"/>
<path d="M13066 11449 c10 -11 40 -36 66 -55 73 -54 94 -136 74 -288 -6 -47
-5 -57 6 -54 20 7 39 76 39 143 -1 133 -25 181 -121 239 -69 41 -92 46 -64 15z"/>
<path d="M10996 11403 c-4 -5 -13 -8 -19 -8 -7 0 -12 -7 -12 -15 0 -8 6 -15
13 -14 6 1 21 2 33 3 13 0 19 7 17 18 -3 19 -21 27 -32 16z"/>
<path d="M10696 11331 c-14 -15 -14 -20 -2 -30 8 -6 19 -10 24 -9 6 2 17 -6
25 -16 18 -24 40 -12 31 17 -6 20 -41 56 -55 57 -3 0 -13 -8 -23 -19z"/>
<path d="M10820 11325 c-24 -13 -34 -38 -25 -64 4 -11 8 -11 20 -1 12 10 18
10 31 0 12 -11 18 -10 34 6 18 19 18 20 -9 45 -24 24 -30 25 -51 14z"/>
<path d="M12620 10536 c0 -7 40 -14 44 -7 3 4 -6 8 -20 9 -13 1 -24 0 -24 -2z"/>
<path d="M5110 9437 c25 -7 47 -12 49 -10 9 7 -7 12 -49 18 l-45 5 45 -13z"/>
<path d="M4564 6364 c-21 -15 -43 -33 -49 -40 -5 -8 -35 -31 -65 -52 -30 -21
-65 -54 -77 -73 -12 -19 -30 -45 -39 -58 l-17 -24 -9 23 c-12 32 -29 14 -62
-63 -41 -94 -49 -110 -70 -139 -18 -25 -20 -26 -32 -10 -12 16 -13 15 -14 -4
0 -12 6 -27 13 -33 21 -17 60 31 106 133 36 78 43 87 57 75 14 -11 20 -8 48
23 17 20 39 48 49 62 10 14 35 35 55 46 20 10 58 39 84 63 26 24 57 50 69 58
18 13 19 16 7 27 -12 10 -23 7 -54 -14z"/>
<path d="M4070 5918 c-31 -33 -47 -66 -70 -149 -28 -99 -68 -279 -76 -337 -3
-26 -8 -50 -11 -54 -2 -5 1 -8 6 -8 6 0 11 8 11 18 0 32 69 287 104 386 19 55
47 111 61 126 14 14 25 29 25 33 0 15 -30 6 -50 -15z"/>
<path d="M3256 5401 c-7 -11 10 -68 30 -100 22 -34 40 -51 89 -84 l40 -27 -35
7 c-64 13 -282 6 -380 -11 -47 -9 -185 -27 -245 -32 -109 -9 -119 -13 -158
-61 -9 -12 -29 -23 -44 -25 -41 -5 -39 -26 2 -34 43 -8 81 7 90 34 7 24 27 34
75 37 19 2 64 6 100 10 72 9 160 12 155 6 -2 -2 37 -24 88 -50 86 -44 208
-120 197 -122 -3 -1 -27 -3 -55 -4 -208 -12 -287 -17 -335 -20 -30 -2 -109 -7
-175 -10 -66 -4 -142 -8 -170 -10 -27 -2 -97 -6 -155 -10 l-105 -7 60 56 c33
31 86 72 118 92 31 19 55 39 52 44 -3 5 -32 -2 -65 -15 -44 -17 -84 -45 -149
-106 -100 -92 -136 -143 -111 -159 47 -30 250 -73 393 -82 15 -2 27 -5 27 -9
0 -3 -31 -20 -69 -37 -111 -50 -150 -93 -167 -187 -2 -15 -16 -45 -31 -67 -24
-39 -24 -42 -8 -54 13 -10 25 -10 58 3 58 21 161 24 232 7 93 -22 186 -31 253
-25 23 2 12 18 -20 27 l-32 9 69 60 c77 67 195 186 195 196 0 13 31 39 46 39
14 0 -77 -146 -133 -214 -13 -16 -22 -31 -19 -33 10 -11 136 138 185 220 20
33 58 65 66 55 2 -3 -147 -223 -183 -269 -14 -18 -31 -26 -53 -27 -37 -1 -44
-6 -36 -26 5 -12 18 -15 64 -10 81 7 165 37 253 89 41 25 93 50 115 56 255 68
386 135 526 266 l66 63 54 -58 c83 -88 309 -274 309 -254 0 5 -19 25 -42 45
-60 48 -235 222 -285 281 -40 48 -70 56 -60 16 3 -12 -5 -27 -22 -42 -62 -54
-63 -54 -36 0 14 28 31 52 38 55 28 10 -9 22 -63 20 -65 -2 -170 -35 -285 -88
-65 -31 -93 -38 -176 -44 -54 -4 -104 -13 -112 -19 -8 -7 -49 -19 -93 -28 -86
-18 -220 -15 -494 12 -36 3 -83 7 -105 9 -101 9 -151 16 -265 39 -72 15 -121
29 -116 33 6 6 29 8 176 18 58 4 107 9 110 10 3 2 57 6 120 10 63 4 122 8 130
10 8 2 58 6 110 9 52 4 115 9 140 11 63 6 214 17 280 20 179 9 400 17 500 19
63 1 115 6 115 11 0 5 -10 10 -21 11 -18 2 -134 104 -118 104 2 0 36 -16 74
-35 93 -47 91 -24 -3 37 -94 60 -140 83 -254 124 -161 58 -199 84 -250 167
-34 53 -55 69 -67 48z m112 -255 c140 -12 314 -84 405 -167 l31 -28 -73 1
c-66 1 -74 3 -91 28 -22 31 -104 76 -205 113 -38 14 -79 29 -90 33 -29 10 -33
11 -57 13 -18 1 -20 3 -8 10 8 6 17 8 20 6 3 -2 33 -6 68 -9z m-47 -46 c139
-46 289 -120 289 -143 0 -2 -27 -5 -60 -6 -53 0 -66 3 -108 33 -65 47 -157 91
-257 125 -46 15 -81 31 -77 35 12 13 93 -4 213 -44z m10 -86 c60 -32 107 -60
104 -62 -3 -3 -30 -7 -60 -9 -52 -3 -61 1 -137 48 -97 61 -210 119 -232 119
-27 0 -17 19 12 22 37 4 182 -50 313 -118z m529 -149 c0 -2 -9 -29 -21 -59
-13 -37 -31 -63 -52 -78 l-32 -23 21 30 c12 17 32 54 44 83 12 28 26 52 31 52
5 0 9 -2 9 -5z m-101 -99 c-44 -90 -48 -93 -147 -137 l-43 -19 73 88 c41 48
84 101 97 117 20 27 51 47 59 40 2 -2 -15 -42 -39 -89z m-144 -59 c-48 -63
-95 -117 -106 -120 -18 -5 -18 -3 -7 11 7 9 16 19 19 22 3 3 39 48 79 100 71
92 91 113 98 105 2 -2 -35 -55 -83 -118z m-86 -24 c-65 -93 -94 -123 -115
-123 -7 0 -21 -3 -31 -7 -10 -3 2 15 27 43 25 27 61 71 79 97 30 44 89 93 99
82 2 -2 -24 -43 -59 -92z m-208 51 c7 7 69 15 69 9 0 -3 -13 -22 -28 -42 -16
-20 -56 -77 -90 -127 -63 -95 -91 -116 -184 -142 l-37 -10 67 83 c89 110 141
197 123 203 -9 3 -2 11 20 22 21 11 38 15 45 9 6 -5 13 -7 15 -5z m135 -31
c-24 -47 -129 -166 -165 -187 -33 -19 -33 -19 -23 0 6 10 35 49 64 85 29 36
64 80 78 97 14 17 33 31 43 31 16 1 16 -1 3 -26z m-602 -19 c54 -10 16 -14
-102 -12 -112 3 -129 5 -115 16 14 10 41 12 108 7 50 -4 98 -9 109 -11z m79
-11 c-7 -2 -21 -2 -30 0 -10 3 -4 5 12 5 17 0 24 -2 18 -5z m-173 -27 c30 -3
64 -6 75 -6 58 -3 -74 -27 -160 -29 -108 -2 -141 -4 -195 -15 -38 -8 -32 0 25
31 32 17 120 31 170 26 17 -1 55 -5 85 -7z m263 -21 c-5 -8 -62 -69 -127 -135
-82 -84 -125 -120 -141 -120 -33 0 -85 11 -85 19 0 3 25 21 55 39 31 18 97 69
149 112 83 71 123 97 149 99 4 1 4 -6 0 -14z m-164 -51 c-13 -15 -60 -55 -104
-91 -44 -35 -88 -71 -97 -78 -10 -8 -25 -12 -33 -9 -11 4 10 24 68 63 115 77
135 94 139 111 2 12 19 22 47 29 3 1 -6 -11 -20 -25z m-244 -10 c-81 -29 -215
-47 -215 -28 0 22 30 36 82 40 28 3 53 5 54 7 1 1 35 3 76 4 l73 2 -70 -25z
m170 -2 c-6 -5 -30 -24 -55 -43 -25 -18 -50 -38 -56 -44 -58 -51 -85 -66 -118
-63 -23 2 -24 4 -9 20 27 30 157 114 193 125 45 14 57 15 45 5z m-235 -97
c-37 -37 -53 -45 -95 -51 -27 -3 -54 -9 -59 -12 -5 -3 -6 0 -2 6 13 22 150 92
196 101 3 1 -15 -19 -40 -44z m-138 19 c-24 -17 -39 -14 -27 5 3 6 16 11 28
11 l21 0 -22 -16z"/>
<path d="M3910 5340 c0 -11 2 -20 4 -20 2 0 6 9 9 20 3 11 1 20 -4 20 -5 0 -9
-9 -9 -20z"/>
</g>
</svg>
